<?xml version="1.0" encoding="UTF-8" standalone="no"?>
<!-- Created with Inkscape (http://www.inkscape.org/) -->

<svg
   xmlns:dc="http://purl.org/dc/elements/1.1/"
   xmlns:cc="http://creativecommons.org/ns#"
   xmlns:rdf="http://www.w3.org/1999/02/22-rdf-syntax-ns#"
   xmlns:svg="http://www.w3.org/2000/svg"
   xmlns="http://www.w3.org/2000/svg"
   xmlns:sodipodi="http://sodipodi.sourceforge.net/DTD/sodipodi-0.dtd"
   xmlns:inkscape="http://www.inkscape.org/namespaces/inkscape"
   width="48px"
   height="48px"
   id="svg2985"
   version="1.1"
   inkscape:version="0.48.1 r9760"
   sodipodi:docname="scomoroh.svg">
  <defs
     id="defs2987" />
  <sodipodi:namedview
     id="base"
     pagecolor="#ffffff"
     bordercolor="#666666"
     borderopacity="1.0"
     inkscape:pageopacity="0.0"
     inkscape:pageshadow="2"
     inkscape:zoom="14"
     inkscape:cx="17.059323"
     inkscape:cy="31.201757"
     inkscape:current-layer="layer1"
     showgrid="true"
     inkscape:grid-bbox="true"
     inkscape:document-units="px"
     inkscape:window-width="1264"
     inkscape:window-height="1105"
     inkscape:window-x="234"
     inkscape:window-y="48"
     inkscape:window-maximized="0" />
  <metadata
     id="metadata2990">
    <rdf:RDF>
      <cc:Work
         rdf:about="">
        <dc:format>image/svg+xml</dc:format>
        <dc:type
           rdf:resource="http://purl.org/dc/dcmitype/StillImage" />
        <dc:title />
      </cc:Work>
    </rdf:RDF>
  </metadata>
  <g
     id="layer1"
     inkscape:label="Layer 1"
     inkscape:groupmode="layer">
    <path
       style="fill:none;stroke:#000000;stroke-width:1px;stroke-linecap:butt;stroke-linejoin:miter;stroke-opacity:1"
       d="M 6.2142858,8.2142857 C 8.4285715,10.642857 8.8571429,11.214285 8.8571429,11.214285"
       id="path2997"
       inkscape:connector-curvature="0"
       sodipodi:nodetypes="cc" />
    <path
       style="fill:#808000;stroke:#8d8930;stroke-width:1.3773452px;stroke-linecap:butt;stroke-linejoin:miter;stroke-opacity:0.85258969"
       d="m 13.461439,16.276628 c 9.886749,30.048318 9.886387,29.955196 9.886387,29.955196 l 21.122021,-20.925637 0,0 -29.76515,-10.057799 0,0"
       id="path2999"
       inkscape:connector-curvature="0" />
    <path
       style="fill:none;stroke:#000000;stroke-width:2.7;stroke-linecap:butt;stroke-linejoin:miter;stroke-opacity:1;stroke-miterlimit:4;stroke-dasharray:none"
       d="M 6.1428571,7.1428571 C 23.428571,25.857143 23.428571,25.857143 23.428571,25.857143 l 0,0 0,0.142857"
       id="path2993"
       inkscape:connector-curvature="0" />
    <path
       style="fill:none;stroke:#000000;stroke-width:5;stroke-linecap:butt;stroke-linejoin:miter;stroke-opacity:1;stroke-miterlimit:4;stroke-dasharray:none"
       d="M 6.7142857,7.5714286 C 10.142857,11.357143 10.142857,11.428571 10.142857,11.428571"
       id="path3772"
       inkscape:connector-curvature="0" />
    <path
       style="fill:#ff0000;stroke:#ff0000;stroke-width:1px;stroke-linecap:butt;stroke-linejoin:miter;stroke-opacity:1"
       d="M 20.928571,4.5714285 C 22.071429,5 21.857143,4.8571428 22.071429,5 c 0.214285,0.1428571 0.785714,1.0714285 0.785714,1.0714285 l 1,1.1428572 1.142857,1.5 0.714286,1.5000003 L 26,10.928571 l 1.214286,0.428572 1.285714,0.07143 1.285714,-0.5 c 0,0 0.928572,-0.5 1,-0.785714 C 30.857143,9.8571428 31.5,8.8571428 31.5,8.8571428 l 1.071429,-3 L 33.714286,4.6428571 34.642857,4.2142857 35.857143,3.8571428 34.5,5.4285714 33.642857,8.1428571 33,12.357143 l 0.142857,2.714286 0.214286,1.357142 -9.785714,0.214286 L 23.357143,11.785714 22.714286,9.2142857 21.857143,7.5 20.785714,5.4285714 19.571429,4.5714285 z"
       id="path3831"
       inkscape:connector-curvature="0" />
    <path
       sodipodi:type="arc"
       style="fill:#ff0000;stroke:#ff0000;stroke-width:5;stroke-miterlimit:4;stroke-opacity:0.85258969;stroke-dasharray:none"
       id="path3833"
       sodipodi:cx="17.892857"
       sodipodi:cy="4.1428571"
       sodipodi:rx="0.10714286"
       sodipodi:ry="0.071428575"
       d="m 17.999999,4.1428571 a 0.10714286,0.07142857 0 1 1 -0.214285,0 0.10714286,0.07142857 0 1 1 0.214285,0 z" />
    <path
       sodipodi:type="arc"
       style="fill:#ff0000;stroke:#ff0000;stroke-width:5;stroke-miterlimit:4;stroke-opacity:0.85258969;stroke-dasharray:none"
       id="path3835"
       sodipodi:cx="37.964287"
       sodipodi:cy="2.5714285"
       sodipodi:rx="0.39285713"
       sodipodi:ry="0.21428572"
       d="m 38.357144,2.5714285 a 0.39285713,0.21428572 0 1 1 -0.785714,0 0.39285713,0.21428572 0 1 1 0.785714,0 z" />
  </g>
  <g
     inkscape:groupmode="layer"
     id="layer2"
     inkscape:label="Слой2" />
</svg>
